<?xml version="1.0" standalone="no"?>
<!DOCTYPE svg PUBLIC "-//W3C//DTD SVG 20010904//EN"
 "http://www.w3.org/TR/2001/REC-SVG-20010904/DTD/svg10.dtd">
<svg version="1.0" xmlns="http://www.w3.org/2000/svg"
 width="1200.000000pt" height="1200.000000pt" viewBox="0 0 1200.000000 1200.000000"
 preserveAspectRatio="xMidYMid meet">
<metadata>
Created by potrace 1.14, written by Peter Selinger 2001-2017
</metadata>
<g transform="translate(0.000000,1200.000000) scale(0.100000,-0.100000)"
fill="#000000" stroke="none">
<path d="M5689 11996 c-2 -2 -59 -7 -127 -10 -68 -4 -129 -9 -135 -11 -7 -2
-43 -6 -82 -10 -517 -44 -1283 -248 -1763 -471 -41 -19 -76 -34 -79 -34 -11 0
-349 -173 -458 -235 -620 -351 -1186 -823 -1649 -1375 -200 -238 -421 -551
-566 -802 -39 -67 -76 -130 -81 -138 -24 -39 -215 -423 -241 -485 -121 -287
-199 -501 -272 -745 -70 -237 -154 -631 -181 -855 -4 -27 -8 -57 -10 -65 -2
-8 -7 -51 -11 -95 -3 -44 -8 -82 -9 -85 -18 -31 -27 -787 -12 -1005 16 -244
49 -485 103 -760 51 -259 180 -724 239 -860 7 -16 30 -75 51 -130 186 -495
502 -1054 849 -1500 274 -353 643 -727 995 -1011 797 -643 1795 -1084 2802
-1239 223 -35 218 -34 289 -40 35 -3 80 -7 99 -10 206 -27 858 -27 1115 -1 17
2 60 6 96 10 36 4 76 9 90 11 13 2 45 6 71 9 26 3 78 11 115 17 37 6 82 13 98
16 17 2 75 13 130 24 55 11 111 22 125 25 54 11 349 85 415 105 101 31 365
119 400 134 17 7 68 27 115 45 284 109 737 338 953 481 32 22 61 39 63 39 8 0
252 168 339 233 174 131 268 208 460 377 116 102 478 476 540 558 6 7 19 23
31 35 72 77 279 354 394 527 45 69 91 137 101 152 10 15 19 30 19 34 0 3 8 18
19 32 62 89 240 422 326 612 110 240 220 531 281 737 63 216 77 264 95 343 11
47 22 94 25 105 2 11 6 31 9 45 8 36 14 71 20 105 3 17 8 37 10 45 4 15 9 41
20 114 4 21 8 46 10 55 5 25 24 161 30 214 3 26 7 66 10 90 12 104 15 139 22
242 15 214 7 838 -12 965 -2 14 -6 54 -9 90 -4 36 -8 76 -11 90 -2 14 -7 48
-10 75 -18 155 -82 485 -135 690 -41 159 -138 475 -170 550 -4 11 -27 70 -51
130 -210 544 -528 1095 -892 1550 -185 230 -352 413 -564 615 -506 483 -1139
901 -1763 1164 -74 32 -144 62 -155 67 -192 88 -816 269 -1085 314 -19 3 -53
10 -75 15 -22 4 -60 11 -85 14 -25 3 -56 8 -70 11 -41 7 -260 34 -330 40 -36
4 -83 9 -105 11 -47 7 -770 16 -776 10z"/>
</g>
</svg>
